<svg width="52" height="51" viewBox="0 0 52 51" fill="none" xmlns="http://www.w3.org/2000/svg">
<path d="M26 0C22.5856 0 19.2047 0.675952 16.0502 1.98926C12.8958 3.30257 10.0295 5.22752 7.61522 7.6542C2.73928 12.5551 0 19.2022 0 26.1331C0 37.6839 7.462 47.4838 17.784 50.9595C19.084 51.1686 19.5 50.3585 19.5 49.6529V45.2364C12.298 46.8044 10.764 41.7345 10.764 41.7345C9.568 38.7031 7.878 37.893 7.878 37.893C5.512 36.2727 8.06 36.325 8.06 36.325C10.66 36.5079 12.038 39.0167 12.038 39.0167C14.3 42.9889 18.122 41.8129 19.604 41.1857C19.838 39.4871 20.514 38.3372 21.242 37.6839C15.47 37.0306 9.412 34.7831 9.412 24.8264C9.412 21.9257 10.4 19.5998 12.09 17.7444C11.83 17.091 10.92 14.3732 12.35 10.8452C12.35 10.8452 14.534 10.1396 19.5 13.5108C21.554 12.9359 23.79 12.6484 26 12.6484C28.21 12.6484 30.446 12.9359 32.5 13.5108C37.466 10.1396 39.65 10.8452 39.65 10.8452C41.08 14.3732 40.17 17.091 39.91 17.7444C41.6 19.5998 42.588 21.9257 42.588 24.8264C42.588 34.8093 36.504 37.0045 30.706 37.6578C31.642 38.4679 32.5 40.062 32.5 42.4924V49.6529C32.5 50.3585 32.916 51.1947 34.242 50.9595C44.564 47.4577 52 37.6839 52 26.1331C52 22.7012 51.3275 19.303 50.0209 16.1324C48.7142 12.9618 46.7991 10.0809 44.3848 7.6542C41.9705 5.22752 39.1042 3.30257 35.9498 1.98926C32.7953 0.675952 29.4144 0 26 0Z" fill="#449DDF"/>
</svg>
