<svg width="52" height="52" viewBox="0 0 52 52" fill="none" xmlns="http://www.w3.org/2000/svg">
<path d="M44.4221 7.56613C42.0265 5.15835 39.1729 3.24928 36.028 1.95028C32.8831 0.651282 29.5097 -0.0116483 26.1045 0.000154881C11.8372 0.000154881 0.209046 11.5701 0.209046 25.7661C0.209046 30.3161 1.41106 34.7361 3.65829 38.636L0 52L13.7186 48.412C17.5075 50.466 21.7668 51.558 26.1045 51.558C40.3719 51.558 52 39.988 52 25.7921C52 18.9021 49.3085 12.4281 44.4221 7.56613ZM26.1045 47.19C22.2372 47.19 18.4482 46.15 15.1296 44.2L14.3457 43.732L6.19297 45.864L8.36181 37.96L7.8392 37.154C5.69059 33.7402 4.54971 29.7941 4.54673 25.7661C4.54673 13.9621 14.2151 4.34214 26.0784 4.34214C31.8271 4.34214 37.2362 6.57814 41.2864 10.6341C43.2919 12.6204 44.8812 14.983 45.9622 17.585C47.0432 20.187 47.5945 22.9766 47.5839 25.7921C47.6362 37.596 37.9678 47.19 26.1045 47.19ZM37.9156 31.1741C37.2623 30.8621 34.0744 29.3021 33.4995 29.0681C32.8985 28.8601 32.4804 28.7561 32.0362 29.3801C31.592 30.0301 30.3638 31.4861 29.998 31.9021C29.6322 32.3441 29.2402 32.3961 28.5869 32.0581C27.9337 31.7461 25.8432 31.0441 23.3869 28.8601C21.4533 27.1441 20.1729 25.0381 19.7809 24.3881C19.4151 23.7381 19.7286 23.4001 20.0683 23.0621C20.3558 22.7761 20.7216 22.3081 21.0352 21.9441C21.3487 21.5801 21.4794 21.2941 21.6884 20.8781C21.8975 20.4361 21.793 20.0721 21.6362 19.7601C21.4794 19.4481 20.1729 16.2761 19.6502 14.9761C19.1276 13.7281 18.5789 13.8841 18.1869 13.8581H16.9327C16.4884 13.8581 15.809 14.0141 15.208 14.6641C14.6332 15.3141 12.9608 16.8741 12.9608 20.0461C12.9608 23.2181 15.2864 26.2861 15.6 26.7021C15.9136 27.1441 20.1729 33.6441 26.6533 36.426C28.195 37.102 29.397 37.492 30.3377 37.778C31.8794 38.272 33.2905 38.194 34.4141 38.038C35.6683 37.856 38.2553 36.478 38.7779 34.9701C39.3266 33.4621 39.3266 32.1881 39.1437 31.9021C38.9608 31.6161 38.5688 31.4861 37.9156 31.1741Z" fill="#449DDF"/>
</svg>
